# xmcd CD database file
#
# Track frame offsets:
#	150
#	2026
#	20445
#	23518
#	40528
#
# Disc length: 589 seconds
#
# Revision: 1
# Processed by: cddbd v1.5.1PL0 Copyright (c) Steve Scherf et al.
# Submitted via: CDex 1.50beta10
#
DISCID=26024b05
DTITLE=Studio Earth Voice - omnimode #01
DYEAR=1999
DGENRE=Jazz
TTITLE0=Intro.
TTITLE1=The EGG and I (collagen mix)
TTITLE2=Charlie say...
TTITLE3=Tank! (calory 10% off mix)
TTITLE4=Outro.
EXTD=YEAR: 1999
EXTT0=
EXTT1=
EXTT2=
EXTT3=
EXTT4=
PLAYORDER=
